<svg width="16" height="16" viewBox="0 0 16 16" fill="none" xmlns="http://www.w3.org/2000/svg">
<path d="M8.82278 7.21717H12.6203C12.8734 7.21717 13 7.34343 13 7.59596V8.40404C13 8.63973 12.8734 8.75758 12.6203 8.75758H8.82278V12.596C8.82278 12.8653 8.6962 13 8.44304 13H7.58228C7.32911 13 7.20253 12.8653 7.20253 12.596V8.75758H3.37975C3.12658 8.75758 3 8.63973 3 8.40404V7.59596C3 7.34343 3.12658 7.21717 3.37975 7.21717H7.20253V3.40404C7.20253 3.13468 7.32911 3 7.58228 3H8.44304C8.6962 3 8.82278 3.13468 8.82278 3.40404V7.21717Z" fill="#192B3F"/>
</svg>
